Coordinates
version=1
nRows=29
nColumns=24
inDegrees=yes

Units are S.I. units (second, meters, Newtons, ...)
Angles are in degrees.

endheader
time	pelvis_tilt	pelvis_list	pelvis_rotation	pelvis_tx	pelvis_ty	pelvis_tz	hip_flexion_r	hip_adduction_r	hip_rotation_r	knee_angle_r	ankle_angle_r	subtalar_angle_r	mtp_angle_r	hip_flexion_l	hip_adduction_l	hip_rotation_l	knee_angle_l	ankle_angle_l	subtalar_angle_l	mtp_angle_l	lumbar_extension	lumbar_bending	lumbar_rotation
      5.92500000	     -1.93668437	      9.31292703	     -6.47743515	      1.89444813	      1.01684083	     -0.27004439	      8.49685280	    -14.23052338	     -4.63570446	    -62.04143420	    -15.22577932	      0.09612954	      0.00000000	     17.33188674	     11.53656854	     -6.28653188	    -14.47055934	      6.14620569	    -10.97299792	      0.00000000	     -7.39201522	    -11.62663798	      3.13611754
      5.93000000	     -1.85409427	      9.42452458	     -6.50075014	      1.90052441	      1.01751639	     -0.27034946	      9.27309528	    -14.30245569	     -4.41358990	    -63.03401231	    -14.51735117	     -0.19571917	      0.00000000	     16.76081566	     11.75497431	     -6.17213534	    -14.22008659	      6.43548797	    -10.96684226	      0.00000000	     -7.48250232	    -11.72971117	      2.93478191
      5.93500000	     -1.77459768	      9.50202678	     -6.53870629	      1.90644175	      1.01821344	     -0.27067180	     10.05699095	    -14.31900761	     -4.15144753	    -63.97615425	    -13.47897554	     -0.25107118	      0.00000000	     16.19826574	     11.94297332	     -6.03988375	    -13.96164107	      6.62493229	    -11.08586398	      0.00000000	     -7.59682706	    -11.78573988	      2.77686449
      5.94000000	     -1.69046135	      9.54779704	     -6.55593483	      1.91243525	      1.01897089	     -0.27099829	     10.79807560	    -14.29704538	     -3.94082241	    -64.81785668	    -12.27537586	     -0.25424882	      0.00000000	     15.58695590	     12.11480940	     -5.79269546	    -13.64309278	      6.76446262	    -11.29273106	      0.00000000	     -7.69692859	    -11.80324834	      2.60229422
      5.94500000	     -1.59724857	      9.55408897	     -6.52401547	      1.91840431	      1.01977766	     -0.27137212	     11.49017533	    -14.23692134	     -3.80100232	    -65.57376380	    -10.89994787	     -0.15133647	      0.00000000	     14.95331037	     12.26067761	     -5.48242075	    -13.32155532	      6.89212199	    -11.51242842	      0.00000000	     -7.82232129	    -11.77060305	      2.37491840
      5.95000000	     -1.50322505	      9.52494471	     -6.46390019	      1.92436506	      1.02062620	     -0.27176443	     12.14902813	    -14.13997917	     -3.71153627	    -66.24100364	     -9.40884465	      0.02118950	      0.00000000	     14.29733449	     12.37873946	     -5.10061419	    -12.97582370	      6.97975646	    -11.77987742	      0.00000000	     -7.95180856	    -11.69400204	      2.12688253
      5.95500000	     -1.42668509	      9.43490054	     -6.37021078	      1.93027766	      1.02148973	     -0.27218234	     12.79237239	    -13.97778048	     -3.67820673	    -66.82135753	     -7.85374166	      0.24582379	      0.00000000	     13.66023613	     12.43292761	     -4.72916171	    -12.65133197	      7.09750220	    -12.01519298	      0.00000000	     -8.07534817	    -11.53835623	      1.85607412
      5.96000000	     -1.31894703	      9.37643280	     -6.26124795	      1.93626784	      1.02241110	     -0.27264675	     13.38284719	    -13.86971596	     -3.69816754	    -67.31854051	     -6.28743203	      0.45169478	      0.00000000	     12.93669675	     12.53905014	     -4.16317493	    -12.22913011	      7.05181355	    -12.43710236	      0.00000000	     -8.21525761	    -11.42151634	      1.57503445
      5.96500000	     -1.23654332	      9.25134903	     -6.11261080	      1.94218839	      1.02333915	     -0.27312876	     13.96411569	    -13.69143840	     -3.78128546	    -67.72790266	     -4.73016733	      0.66801412	      0.00000000	     12.25618161	     12.56500331	     -3.67707269	    -11.85734744	      7.06806169	    -12.74624754	      0.00000000	     -8.34591185	    -11.22093417	      1.27933614
      5.97000000	     -1.13929239	      9.12183081	     -5.95619790	      1.94814649	      1.02428068	     -0.27364926	     14.51479674	    -13.51979433	     -3.89798654	    -68.06178335	     -3.25671308	      0.83796805	      0.00000000	     11.52485314	     12.59172534	     -3.07518107	    -11.43018514	      7.04577078	    -13.14028665	      0.00000000	     -8.48322838	    -11.01016839	      0.95320841
      5.97500000	     -1.05599548	      8.96344549	     -5.77234049	      1.95407357	      1.02522665	     -0.27418235	     15.05436741	    -13.32287721	     -4.06651162	    -68.31411647	     -1.85035909	      0.97260234	      0.00000000	     10.81204267	     12.57821230	     -2.51731252	    -11.01826392	      7.03125501	    -13.46996306	      0.00000000	     -8.61182134	    -10.76275337	      0.62459971
      5.98000000	     -0.97453527	      8.78603241	     -5.57313771	      1.95998896	      1.02617638	     -0.27473351	     15.57686047	    -13.11204350	     -4.27322190	    -68.48988604	     -0.54427785	      1.05393331	      0.00000000	     10.09102450	     12.53888819	     -1.94476056	    -10.59335934	      7.00562798	    -13.79776678	      0.00000000	     -8.74046730	    -10.49007507	      0.29007347
      5.98500000	     -0.90004640	      8.59522416	     -5.35976643	      1.96589285	      1.02711251	     -0.27529289	     16.08969733	    -12.89141054	     -4.51251178	    -68.59323032	      0.66109113	      1.08816173	      0.00000000	      9.37161903	     12.47581279	     -1.38615781	    -10.16067972	      6.98320414	    -14.09052689	      0.00000000	     -8.86047186	    -10.19962801	     -0.05067388
      5.99000000	     -0.83316901	      8.39342552	     -5.13427088	      1.97178511	      1.02803164	     -0.27586036	     16.59357360	    -12.66265799	     -4.77917196	    -68.62465634	      1.76457054	      1.08153840	      0.00000000	      8.65503273	     12.39144979	     -0.84101367	     -9.71878602	      6.96147437	    -14.35527095	      0.00000000	     -8.97122627	     -9.89441403	     -0.39587082
      5.99500000	     -0.77146504	      8.18087631	     -4.90393267	      1.97766902	      1.02892767	     -0.27641845	     17.08844164	    -12.42268516	     -5.06381806	    -68.58741492	      2.77242079	      1.04242799	      0.00000000	      7.93704856	     12.28501279	     -0.29787169	     -9.26537970	      6.93689825	    -14.60333957	      0.00000000	     -9.07693253	     -9.57573977	     -0.73959283
      6.00000000	     -0.72868823	      7.95408620	     -4.66658366	      1.98353605	      1.02979587	     -0.27696497	     17.58601668	    -12.16504791	     -5.36196936	    -68.47948981	      3.70461939	      1.00076691	      0.00000000	      7.23996844	     12.15107586	      0.18552792	     -8.80697968	      6.90786835	    -14.81047961	      0.00000000	     -9.15885522	     -9.23806315	     -1.08576507
      6.00500000	     -0.66656578	      7.73269760	     -4.43230322	      1.98938199	      1.03063006	     -0.27750771	     18.05704399	    -11.91681244	     -5.67118451	    -68.31411433	      4.55430931	      0.91803825	      0.00000000	      6.50626073	     12.01629460	      0.75960081	     -8.31923362	      6.87249390	    -15.06765130	      0.00000000	     -9.26516559	     -8.91008674	     -1.41989065
      6.01000000	     -0.63003182	      7.49614158	     -4.19373538	      1.99521066	      1.03143220	     -0.27801625	     18.53572220	    -11.64366071	     -5.97990326	    -68.07674658	      5.36387253	      0.87236602	      0.00000000	      5.80728532	     11.85126933	      1.24984762	     -7.83624549	      6.82294810	    -15.27772379	      0.00000000	     -9.34059417	     -8.56387152	     -1.75837236
      6.01500000	     -0.57941641	      7.26239333	     -3.96356765	      2.00102820	      1.03218580	     -0.27851921	     18.99213904	    -11.37515291	     -6.29027470	    -67.78285452	      6.12749254	      0.82381902	      0.00000000	      5.08084825	     11.68265342	      1.80144608	     -7.32690235	      6.77099609	    -15.54344178	      0.00000000	     -9.43065529	     -8.22255288	     -2.07910237
      6.02000000	     -0.55482096	      7.01533720	     -3.72562816	      2.00681615	      1.03289853	     -0.27898684	     19.45641668	    -11.08304478	     -6.59815606	    -67.41809577	      6.86988173	      0.82277354	      0.00000000	      4.39237427	     11.48718328	      2.28340401	     -6.82652449	      6.70330006	    -15.77102356	      0.00000000	     -9.49332013	     -7.86606547	     -2.41583489
      6.02500000	     -0.51958361	      6.76971215	     -3.49604366	      2.01258640	      1.03356800	     -0.27942709	     19.89807384	    -10.78873735	     -6.89951605	    -66.99155934	      7.59667033	      0.84090122	      0.00000000	      3.68477386	     11.28463892	      2.80565789	     -6.30582922	      6.61864771	    -16.04502103	      0.00000000	     -9.56798341	     -7.51570373	     -2.72954727
      6.03000000	     -0.48740381	      6.52214996	     -3.27200180	      2.01834174	      1.03418369	     -0.27984341	     20.32889619	    -10.48633972	     -7.19008663	    -66.50140657	      8.31302057	      0.89784656	      0.00000000	      2.98119979	     11.07064765	      3.31408845	     -5.77790173	      6.53128505	    -16.32680146	      0.00000000	     -9.63707478	     -7.16373123	     -3.04116111
      6.03500000	     -0.45639348	      6.27323735	     -3.05314854	      2.02407374	      1.03474841	     -0.28022022	     20.74590161	    -10.17489573	     -7.46836456	    -65.94584355	      9.02446780	      0.99182105	      0.00000000	      2.28054378	     10.84503085	      3.81111919	     -5.24416806	      6.43955816	    -16.61405284	      0.00000000	     -9.70535600	     -6.81380340	     -3.34400889
      6.04000000	     -0.42548348	      6.02455663	     -2.84036040	      2.02978791	      1.03525942	     -0.28056073	     21.14669102	     -9.85628002	     -7.73371417	    -65.32338636	      9.73403236	      1.11940672	      0.00000000	      1.58212178	     10.60959206	      4.29521906	     -4.70614998	      6.34561008	    -16.90084466	      0.00000000	     -9.77333177	     -6.46782942	     -3.63623339
      6.04500000	     -0.39798741	      5.77787029	     -2.63440796	      2.03547930	      1.03571196	     -0.28086129	     21.53483089	     -9.53175084	     -7.98402284	    -64.63386390	     10.43606262	      1.27723877	      0.00000000	      0.89242092	     10.36604445	      4.75406765	     -4.16824399	      6.25820792	    -17.17140033	      0.00000000	     -9.83829155	     -6.12804189	     -3.91874057
      6.05000000	     -0.37070400	      5.53505580	     -2.43390233	      2.04115668	      1.03610472	     -0.28113293	     21.90644148	     -9.20646164	     -8.22351981	    -63.87859532	     11.12566585	      1.45748725	      0.00000000	      0.20723914	     10.11790049	      5.18638616	     -3.62971191	      6.17512482	    -17.42946145	      0.00000000	     -9.90225187	     -5.79445710	     -4.19082733
      6.05500000	     -0.35043188	      5.29905890	     -2.24076245	      2.04680902	      1.03642986	     -0.28136460	     22.27013866	     -8.88044504	     -8.44558476	    -63.05852680	     11.79371309	      1.65499031	      0.00000000	     -0.46181700	      9.86772422	      5.58188148	     -3.09771485	      6.10577712	    -17.65464115	      0.00000000	     -9.95882352	     -5.47261010	     -4.45495014
      6.06000000	     -0.33312907	      5.07174289	     -2.05355853	      2.05244255	      1.03669108	     -0.28156605	     22.62017636	     -8.55881278	     -8.65503486	    -62.17398238	     12.43498078	      1.86301593	      0.00000000	     -1.11920481	      9.61950275	      5.94067074	     -2.57253812	      6.04233555	    -17.85785073	      0.00000000	    -10.01280006	     -5.16373288	     -4.71055006
      6.06500000	     -0.40480116	      4.89389185	     -1.93900915	      2.05801355	      1.03672708	     -0.28162640	     23.08494207	     -8.24554820	     -8.74545703	    -61.25903341	     13.07508878	      2.11988259	      0.00000000	     -1.63521761	      9.41929047	      6.06550190	     -2.10822449	      6.09556945	    -17.88452549	      0.00000000	     -9.95663844	     -4.92669649	     -4.89027833
